<svg xmlns="http://www.w3.org/2000/svg" width="31.103" height="31.103" data-name="Group 72"><path d="M15.551 2.802c4.152 0 4.644.016 6.284.091a8.608 8.608 0 0 1 2.888.535 5.15 5.15 0 0 1 2.951 2.951 8.607 8.607 0 0 1 .535 2.888c.075 1.64.091 2.132.091 6.284s-.016 4.644-.091 6.284a8.608 8.608 0 0 1-.535 2.888 5.15 5.15 0 0 1-2.953 2.952 8.608 8.608 0 0 1-2.888.535c-1.64.075-2.131.091-6.284.091s-4.644-.016-6.284-.091a8.607 8.607 0 0 1-2.888-.535 5.15 5.15 0 0 1-2.949-2.954 8.608 8.608 0 0 1-.535-2.888c-.075-1.64-.091-2.132-.091-6.284s.016-4.644.091-6.284a8.607 8.607 0 0 1 .535-2.888 5.15 5.15 0 0 1 2.951-2.951 8.607 8.607 0 0 1 2.888-.535c1.64-.075 2.132-.091 6.284-.091m0-2.8c-4.224 0-4.753.018-6.412.094a11.415 11.415 0 0 0-3.774.727A7.952 7.952 0 0 0 .821 5.365 11.415 11.415 0 0 0 .098 9.14c-.076 1.659-.094 2.188-.094 6.412s.018 4.753.094 6.412a11.415 11.415 0 0 0 .723 3.774 7.952 7.952 0 0 0 4.548 4.548 11.415 11.415 0 0 0 3.775.723c1.659.076 2.188.094 6.412.094s4.753-.018 6.412-.094a11.415 11.415 0 0 0 3.775-.723 7.952 7.952 0 0 0 4.548-4.548 11.415 11.415 0 0 0 .723-3.775c.076-1.659.094-2.188.094-6.412s-.018-4.753-.094-6.412a11.415 11.415 0 0 0-.723-3.775A7.952 7.952 0 0 0 25.738.821a11.415 11.415 0 0 0-3.775-.723C20.304.022 19.775.004 15.551.004Z" data-name="Path 65"/><path d="M15.552 7.566a7.986 7.986 0 1 0 7.986 7.986 7.986 7.986 0 0 0-7.986-7.986Zm0 13.17a5.184 5.184 0 1 1 5.184-5.184 5.184 5.184 0 0 1-5.184 5.179Z" data-name="Path 66"/><circle cx="1.866" cy="1.866" r="1.866" data-name="Ellipse 22" transform="translate(21.987 5.384)"/></svg>