<svg xmlns="http://www.w3.org/2000/svg" width="31.327" height="31.327"><path d="M15.664 0a15.663 15.663 0 1 0 15.663 15.663A15.664 15.664 0 0 0 15.664 0Zm7.866 12.694c.007.162.011.325.011.488a10.739 10.739 0 0 1-16.532 9.047 7.689 7.689 0 0 0 .9.052 7.577 7.577 0 0 0 4.69-1.616 3.78 3.78 0 0 1-3.528-2.623 3.769 3.769 0 0 0 1.705-.065 3.778 3.778 0 0 1-3.029-3.7v-.048a3.749 3.749 0 0 0 1.71.472A3.779 3.779 0 0 1 8.29 9.659a10.72 10.72 0 0 0 7.784 3.941 3.778 3.778 0 0 1 6.435-3.444 7.567 7.567 0 0 0 2.4-.916 3.79 3.79 0 0 1-1.66 2.089 7.538 7.538 0 0 0 2.168-.594 7.682 7.682 0 0 1-1.887 1.959Z" data-name="Path 68"/></svg>