<svg xmlns="http://www.w3.org/2000/svg" width="40.646" height="28.453"><path d="M39.797 4.443A5.091 5.091 0 0 0 36.203.85C33.033 0 20.323 0 20.323 0S7.613 0 4.443.85A5.091 5.091 0 0 0 .85 4.443c-.849 3.17-.849 9.783-.849 9.783s0 6.614.849 9.784a5.09 5.09 0 0 0 3.594 3.593c3.17.85 15.88.85 15.88.85s12.71 0 15.88-.85a5.09 5.09 0 0 0 3.594-3.593c.849-3.17.849-9.784.849-9.784s.003-6.613-.85-9.783Z" data-name="Path 147"/><path fill="#fff" d="M16.259 20.323V8.129l10.56 6.1Z" data-name="Path 148"/></svg>