<svg xmlns="http://www.w3.org/2000/svg" xml:space="preserve" viewBox="0 0 278.63 142.33"><path d="M226 87.43h-59.32l-11.78-5.76 1.1-2.25 11.26 5.51H226z"/><path d="M168.22 141.01h-2.5V85.48l30.32-18.7 1.31 2.13-29.13 17.97z"/><path d="m184.725 63.295 1.113-2.238 11.416 5.676-1.113 2.238z"/><path d="M227.25 142.33h-60.83l-12.26-13.43.04-49.05 29.83-18.37v-11.1l13.91 6.72v10.05l29.3 18.34v56.84zm-59.73-2.5h57.23V86.87l-29.3-18.34v-9.87l-8.91-4.3v8.5L156.7 81.24l-.04 46.68 10.86 11.91zM22.16 45.34c-1.36 2.71-4.36 5.07-8.78 5.07-8.31 0-13.44-6.6-13.44-15.03 0-8.01 5.42-14.85 13.44-14.85 5.01 0 7.72 2.48 8.66 4.77V6.98h5.48V44.4c0 2.71.24 4.77.29 5.24h-5.36c-.12-.65-.29-2.12-.29-3.83v-.47zm-8.25.18c5.07 0 8.19-4.42 8.19-10.25s-3.06-9.84-8.13-9.84-8.37 4.12-8.37 9.95 3 10.14 8.31 10.14zM58.11 41.57c-1.59 5.01-6.13 8.96-12.73 8.96-7.6 0-14.26-5.54-14.26-15.14 0-8.9 6.42-14.97 13.55-14.97 8.72 0 13.61 6.01 13.61 14.85 0 .71-.06 1.41-.12 1.77H36.83c.12 5.07 3.77 8.6 8.54 8.6 4.6 0 6.89-2.53 7.96-5.72l4.78 1.65zm-5.6-9.01c-.12-4.07-2.77-7.25-7.78-7.25-4.66 0-7.48 3.59-7.72 7.25h15.5zM65.36 40.51c.35 2.95 2.59 5.3 6.6 5.3 3.12 0 4.83-1.77 4.83-3.77 0-1.77-1.3-3.12-3.65-3.65l-4.83-1.06c-4.42-.94-7.07-3.95-7.07-7.96 0-4.83 4.54-8.96 10.08-8.96 7.78 0 10.19 5.07 10.78 7.6l-4.89 1.83c-.24-1.47-1.41-4.71-5.89-4.71-2.83 0-4.71 1.83-4.71 3.77 0 1.71 1.06 2.95 3.24 3.42l4.6 1c5.13 1.12 7.84 4.24 7.84 8.43 0 4.01-3.36 8.78-10.37 8.78-7.78 0-11.08-5.01-11.55-8.25l4.99-1.77zM88.81 6.57c2.24 0 4.01 1.77 4.01 4.01 0 2.18-1.77 3.95-4.01 3.95-2.18 0-3.95-1.77-3.95-3.95 0-2.24 1.77-4.01 3.95-4.01zM86.1 49.65V21.3h5.48v28.35H86.1zM100.77 49.94c.41 3.95 3.42 6.95 7.72 6.95 5.95 0 8.66-3.06 8.66-9.19v-4.07c-1.36 2.59-4.42 4.66-8.66 4.66-7.54 0-13.02-5.72-13.02-13.73 0-7.66 5.24-13.79 13.02-13.79 4.36 0 7.31 1.65 8.72 4.48V21.3h5.48v26.22c0 7.19-3.54 14.2-14.2 14.2-7.07 0-12.38-4.48-13.08-10.55l5.36-1.23zm16.62-15.38c0-5.48-3.3-9.08-8.07-9.08-4.89 0-8.19 3.59-8.19 9.08 0 5.54 3.18 9.08 8.19 9.08 4.77-.01 8.07-3.6 8.07-9.08zM132.36 49.65h-5.54V21.3h5.42v4.07c2.06-3.54 5.42-4.89 8.72-4.89 6.78 0 10.14 4.89 10.14 11.2v17.97h-5.54V32.61c0-3.95-1.65-7.13-6.6-7.13-4.36 0-6.6 3.48-6.6 7.78v16.39z"/><path d="m146.866 1.489 3.733-1.437 28.003 72.76-3.733 1.437zM174.68 49.65V21.3h5.3v3.77c1.77-3.12 5.3-4.6 8.6-4.6 3.54 0 6.95 1.71 8.49 5.36 2.24-4.07 5.89-5.36 9.49-5.36 4.95 0 9.78 3.36 9.78 10.78v18.39h-5.48v-17.8c0-3.71-1.83-6.48-6.01-6.48-3.89 0-6.54 3.06-6.54 7.13v17.15h-5.54v-17.8c0-3.65-1.77-6.48-6.01-6.48-3.95 0-6.6 2.95-6.6 7.19v17.09h-5.48zM224.36 6.57c2.24 0 4.01 1.77 4.01 4.01 0 2.18-1.77 3.95-4.01 3.95-2.18 0-3.95-1.77-3.95-3.95 0-2.24 1.77-4.01 3.95-4.01zm-2.71 43.08V21.3h5.48v28.35h-5.48zM233.02 49.65V6.98h5.54v42.67h-5.54zM257.77 33.26l12.32 16.38h-6.95l-9.25-12.49-3.95 3.95v8.54h-5.48V6.98h5.48v26.87L262.2 21.3h7.66l-12.09 11.96zM203.73 131.98c-.37.74-1.2 1.39-2.41 1.39-2.28 0-3.68-1.81-3.68-4.12 0-2.2 1.49-4.07 3.68-4.07 1.37 0 2.12.68 2.37 1.31v-5.02h1.5v10.25c0 .74.06 1.31.08 1.44h-1.47a6.83 6.83 0 0 1-.08-1.05v-.13zm-2.26.05c1.39 0 2.24-1.21 2.24-2.81s-.84-2.7-2.23-2.7c-1.39 0-2.29 1.13-2.29 2.73s.83 2.78 2.28 2.78zM206.81 133.16v-7.77h1.45v1.03c.48-.86 1.45-1.26 2.36-1.26.97 0 1.91.47 2.32 1.47.61-1.11 1.62-1.47 2.6-1.47 1.36 0 2.68.92 2.68 2.95v5.04h-1.5v-4.88c0-1.02-.5-1.78-1.65-1.78-1.07 0-1.79.84-1.79 1.95v4.7h-1.52v-4.88c0-1-.48-1.78-1.65-1.78-1.08 0-1.81.81-1.81 1.97v4.68h-1.49z"/><text font-family="'CircularStd-Book'" font-size="12" transform="translate(269.315 20.787)">®</text></svg>